# xmcd
#
# Track frame offsets:
#	150
#	15777
#	34276
#	51478
#	66744
#	82774
#	102008
#	119069
#	135905
#	149574
#	166432
#	180840
#	197486
#	216602
#	233954
#	253281
#	277613
#	290009
#
# Disc length: 4006 seconds
#
# Revision: 0
# Processed by: cddbd v1.5.1PL0 Copyright (c) Steve Scherf et al.
# Submitted via: audiograbber 1.83.01
#
DISCID=0c0fa412
DTITLE=Promo Only Canada - Country Radio - 2003 - 06 - June
DYEAR=2003
DGENRE=Country
TTITLE0=Blake Shelton - Heavy Liftin'
TTITLE1=Shania Twain - Forever And For Always
TTITLE2=Charlie Robison - Walter
TTITLE3=Joe Nichols - She Only Smokes When She Drinks
TTITLE4=Deana Carter - I'm Just A Girl
TTITLE5=Chalee Tennison - Easy Lovin' You
TTITLE6=Jimmy Wayne - Stay Gone
TTITLE7=Lisa Marie Presley - Lights Out
TTITLE8=McHayes - It Doesn't Mean I Don't Love You
TTITLE9=Clay Walker - A Few Questions
TTITLE10=Aaron Lines - Love Changes Everything
TTITLE11=Jason Blaine - That's What I Do
TTITLE12=Warren Brothers - Hey, Mr. President
TTITLE13=Roseanne Cash - Rules Of Travel
TTITLE14=Marcel - Tennessee
TTITLE15=Rebel Hearts - Heroes
TTITLE16=John Conlee - She's Mine
TTITLE17=Kacey Jones - Never Wear Panties To A Party
EXTD=
EXTT0=
EXTT1=
EXTT2=
EXTT3=
EXTT4=
EXTT5=
EXTT6=
EXTT7=
EXTT8=
EXTT9=
EXTT10=
EXTT11=
EXTT12=
EXTT13=
EXTT14=
EXTT15=
EXTT16=
EXTT17=
PLAYORDER=
